<svg width="26" height="26" viewBox="0 0 26 26" fill="none" xmlns="http://www.w3.org/2000/svg">
<g clip-path="url(#clip0_1_1420)">
<path d="M13 26C9.55219 26 6.24558 24.6304 3.80761 22.1924C1.36964 19.7544 0 16.4478 0 13C0 9.55219 1.36964 6.24558 3.80761 3.80761C6.24558 1.36964 9.55219 0 13 0C16.4478 0 19.7544 1.36964 22.1924 3.80761C24.6304 6.24558 26 9.55219 26 13C26 16.4478 24.6304 19.7544 22.1924 22.1924C19.7544 24.6304 16.4478 26 13 26ZM13 2.4375C10.1987 2.4375 7.51204 3.55033 5.53118 5.53118C3.55033 7.51204 2.4375 10.1987 2.4375 13C2.4375 15.8013 3.55033 18.488 5.53118 20.4688C7.51204 22.4497 10.1987 23.5625 13 23.5625C15.8013 23.5625 18.488 22.4497 20.4688 20.4688C22.4497 18.488 23.5625 15.8013 23.5625 13C23.5625 10.1987 22.4497 7.51204 20.4688 5.53118C18.488 3.55033 15.8013 2.4375 13 2.4375ZM16.5902 8.62773C16.9863 8.08437 17.748 7.9625 18.2914 8.35859C18.8348 8.75469 18.9566 9.51641 18.5605 10.0598L12.3602 18.591C12.152 18.8805 11.827 19.0633 11.4715 19.0887C11.116 19.1141 10.7656 18.9871 10.5168 18.7383L7.67812 15.8996C7.20078 15.4223 7.20078 14.6504 7.67812 14.1781C8.15547 13.7059 8.92734 13.7008 9.39961 14.1781L11.2277 16.0063L16.5902 8.63281V8.62773Z" fill="black"/>
</g>
<defs>
<clipPath id="clip0_1_1420">
<rect width="26" height="26" fill="white"/>
</clipPath>
</defs>
</svg>
