<svg width="394" height="28" viewBox="0 0 394 28" fill="none" xmlns="http://www.w3.org/2000/svg">
<path d="M17.39 0.398609H21.22L27.56 20.5347L33.71 0.47206H38.46L29.47 27.7224H25.57L19.23 8.27886L12.89 27.7224H8.99L0 0.47206H4.9L11.05 20.5347L17.39 0.398609Z" fill="#1D1C1A"/>
<path d="M71.94 4.763H57.35V11.7199H70.28V16.0115H57.35V23.2412H72.12V27.5328H52.85V0.471363H71.93V4.763H71.94Z" fill="#1D1C1A"/>
<path d="M91.36 8.93963C91.53 9.32788 91.85 9.68464 92.3 10.0204C92.76 10.3562 93.38 10.6605 94.18 10.9438C94.98 11.2271 96 11.5209 97.23 11.8357C98.58 12.1925 99.78 12.5912 100.83 13.0319C101.88 13.4726 102.74 14.0078 103.43 14.6373C104.12 15.2669 104.64 16.0014 105 16.8409C105.36 17.6803 105.54 18.6667 105.54 19.7999C105.54 21.0905 105.31 22.2343 104.86 23.2416C104.41 24.2489 103.78 25.0989 102.98 25.7914C102.18 26.4839 101.21 27.0191 100.08 27.3759C98.95 27.7326 97.71 27.9215 96.36 27.9215C94.37 27.9215 92.47 27.5647 90.65 26.8617C88.83 26.1482 87.15 25.0674 85.6 23.5984L88.33 20.1986C89.58 21.3319 90.85 22.2028 92.12 22.8114C93.4 23.42 94.85 23.7243 96.47 23.7243C97.87 23.7243 98.98 23.42 99.8 22.8009C100.62 22.1818 101.03 21.3424 101.03 20.2931C101.03 19.7999 100.95 19.3697 100.79 18.9814C100.63 18.5932 100.33 18.2364 99.9 17.9216C99.47 17.5964 98.88 17.3026 98.13 17.0088C97.38 16.7254 96.4 16.4316 95.19 16.1169C93.81 15.7811 92.59 15.4033 91.52 14.9941C90.45 14.5849 89.55 14.0707 88.82 13.4516C88.09 12.8325 87.54 12.0875 87.16 11.2061C86.78 10.3247 86.59 9.26492 86.59 7.99526C86.59 6.80955 86.81 5.72877 87.25 4.76342C87.69 3.79806 88.29 2.96911 89.06 2.26608C89.83 1.57354 90.75 1.0384 91.83 0.660648C92.91 0.293393 94.09 0.104519 95.36 0.104519C97.25 0.104519 98.95 0.398323 100.46 0.975439C101.97 1.55255 103.39 2.40249 104.71 3.50425L102.28 7.10336C101.1 6.20096 99.93 5.50842 98.78 5.03623C97.63 4.56405 96.46 4.32271 95.28 4.32271C93.95 4.32271 92.92 4.6375 92.19 5.26708C91.45 5.89666 91.08 6.66265 91.08 7.56505C91.08 8.11069 91.17 8.57238 91.34 8.96062L91.36 8.93963Z" fill="#1D1C1A"/>
<path d="M130.99 27.5328H126.42V4.87843H118.24V0.471363H139.16V4.87843H130.98V27.5328H130.99Z" fill="#1D1C1A"/>
<path d="M160.09 4.41751H164.29V11.7626H171.36V16.0543H164.29V23.4413H160.09V16.0543H153.02V11.7626H160.09V4.41751Z" fill="#1D1C1A"/>
<path d="M205.36 0.471363H210.26L199.54 27.7217H195.56L184.85 0.471363H189.86L197.63 21.2685L205.36 0.471363Z" fill="#1D1C1A"/>
<path d="M229.2 0.471363V27.5328H224.71V0.471363H229.2Z" fill="#1D1C1A"/>
<path d="M256.79 27.5328H252.22V4.87843H244.04V0.471363H264.96V4.87843H256.78V27.5328H256.79Z" fill="#1D1C1A"/>
<path d="M290.42 27.5328H285.85V4.87843H277.67V0.471363H298.59V4.87843H290.41V27.5328H290.42Z" fill="#1D1C1A"/>
<path d="M336.58 19.3806C335.92 21.0805 334.98 22.5705 333.78 23.8401C332.58 25.1203 331.15 26.1276 329.51 26.8726C327.86 27.6176 326.05 27.9954 324.06 27.9954C322.07 27.9954 320.25 27.6281 318.61 26.8936C316.96 26.1591 315.55 25.1622 314.37 23.9031C313.19 22.6439 312.27 21.1539 311.61 19.454C310.95 17.7542 310.62 15.9494 310.62 14.0396C310.62 12.1299 310.95 10.3251 311.61 8.62526C312.27 6.92539 313.21 5.43538 314.41 4.15523C315.61 2.88558 317.04 1.86776 318.68 1.12275C320.33 0.377748 322.14 0 324.13 0C326.12 0 327.94 0.367255 329.58 1.10177C331.23 1.83628 332.64 2.83311 333.82 4.09227C335 5.35144 335.92 6.84144 336.58 8.54131C337.24 10.2412 337.58 12.046 337.58 13.9557C337.58 15.8654 337.25 17.6702 336.58 19.3701V19.3806ZM332.17 10.3146C331.74 9.13941 331.14 8.12159 330.37 7.24018C329.6 6.35877 328.67 5.66623 327.59 5.15207C326.51 4.63791 325.33 4.37559 324.05 4.37559C322.77 4.37559 321.6 4.62742 320.53 5.13108C319.46 5.63475 318.55 6.31679 317.79 7.17722C317.03 8.03765 316.43 9.05547 316 10.2307C315.57 11.4059 315.36 12.6441 315.36 13.9557C315.36 15.2673 315.58 16.516 316 17.6807C316.43 18.8559 317.03 19.8738 317.81 20.7552C318.58 21.6366 319.51 22.3291 320.59 22.8433C321.67 23.3574 322.85 23.6198 324.13 23.6198C325.41 23.6198 326.58 23.3679 327.65 22.8643C328.72 22.3606 329.63 21.6786 330.39 20.8181C331.15 19.9577 331.75 18.9399 332.18 17.7647C332.61 16.5895 332.82 15.3513 332.82 14.0396C332.82 12.728 332.61 11.4794 332.18 10.3146H332.17Z" fill="#1D1C1A"/>
<path d="M369.36 27.5328L363.01 18.0996H357.32V27.5328H352.83V0.471363H364.32C365.79 0.471363 367.13 0.67073 368.32 1.06946C369.51 1.4682 370.52 2.03482 371.34 2.76933C372.16 3.50384 372.8 4.40624 373.24 5.47653C373.68 6.54682 373.9 7.73253 373.9 9.05465C373.9 10.1879 373.75 11.1952 373.44 12.0871C373.13 12.979 372.71 13.766 372.17 14.4481C371.63 15.1301 370.99 15.7072 370.24 16.1899C369.49 16.6621 368.66 17.0293 367.75 17.2917L374.71 27.5328H369.37H369.36ZM367.88 5.90674C366.94 5.14075 365.63 4.763 363.93 4.763H357.32V13.8814H363.97C365.6 13.8814 366.89 13.4722 367.85 12.6433C368.81 11.8143 369.29 10.702 369.29 9.30648C369.29 7.80598 368.82 6.67273 367.89 5.90674H367.88Z" fill="#1D1C1A"/>
<path d="M393.97 0.471363V27.5328H389.48V0.471363H393.97Z" fill="#1D1C1A"/>
</svg>
